# xmcd CD database file
#
# Track frame offsets:
#	150
#	22107
#	44052
#	66112
#
# Disc length: 1169 seconds
#
# Revision: 0
# Processed by: cddbd v1.5PL3 Copyright (c) Steve Scherf et al.
# Submitted via: CDex 1.50beta9
#
DISCID=36048f04
DTITLE=大黒摩季 - いちばん近くにいてね
DYEAR=1995
DGENRE=J-POP
TTITLE0=いちばん近くにいてね
TTITLE1=Ｅｌ　ａｍｏｒ　ｅｓ　ｃｉｅｇｏ〜恋は盲目〜
TTITLE2=いちばん近くにいてね（Ｏｒｉｇｉｎａｌ　Ｋａｒａｏｋｅ）
TTITLE3=Ｅｌ　ａｍｏｒ　ｅｓ　ｃｉｅｇｏ〜恋は盲目〜（Ｏｒｉｇｉｎａｌ　Ｋａｒａｏｋｅ）
EXTD=YEAR: 1995
EXTT0=
EXTT1=
EXTT2=
EXTT3=
PLAYORDER=
